<?xml version="1.0" standalone="no"?>
<!DOCTYPE svg PUBLIC "-//W3C//DTD SVG 20010904//EN"
 "http://www.w3.org/TR/2001/REC-SVG-20010904/DTD/svg10.dtd">
<svg version="1.0" xmlns="http://www.w3.org/2000/svg"
 width="96.000000pt" height="96.000000pt" viewBox="0 0 96.000000 96.000000"
 preserveAspectRatio="xMidYMid meet">
<metadata>
Created by potrace 1.10, written by Peter Selinger 2001-2011
</metadata>
<g transform="translate(0.000000,96.000000) scale(0.100000,-0.100000)"
fill="#000000" stroke="none">
<path d="M73 949 c-18 -5 -39 -20 -47 -32 -19 -31 -28 -75 -16 -82 13 -8 14
-715 1 -715 -12 0 3 -66 19 -85 17 -20 82 -37 94 -25 13 13 699 13 712 0 12
-12 77 5 94 25 17 20 30 84 19 91 -13 7 -12 697 1 710 15 15 -7 82 -33 98 -31
20 -87 30 -87 17 0 -15 -696 -15 -705 -1 -7 11 -9 11 -52 -1z m811 -65 c14
-13 16 -64 16 -404 0 -340 -2 -391 -16 -404 -13 -14 -64 -16 -404 -16 -340 0
-391 2 -404 16 -14 13 -16 64 -16 404 0 340 2 391 16 404 13 14 64 16 404 16
340 0 391 -2 404 -16z"/>
<path d="M294 621 c-46 -28 -55 -62 -52 -186 3 -110 3 -110 28 -110 24 0 25 3
28 62 l3 62 67 3 c64 3 67 4 67 28 0 24 -3 25 -67 28 -56 2 -68 6 -68 20 0 34
19 47 77 52 54 5 58 7 58 30 0 23 -4 25 -55 28 -40 2 -63 -3 -86 -17z"/>
<path d="M524 627 c-3 -8 -4 -49 -2 -93 l3 -79 57 -3 c105 -6 107 -63 2 -72
-55 -5 -59 -7 -59 -30 0 -24 2 -25 72 -25 91 0 118 20 118 90 0 58 -26 85 -89
92 -44 5 -46 7 -46 39 l0 33 68 3 c64 3 67 4 67 28 0 25 -1 25 -93 28 -71 2
-94 0 -98 -11z"/>
</g>
</svg>
